<mxfile host="Electron" modified="2023-04-14T00:58:50.481Z" agent="Mozilla/5.0 (Windows NT 10.0; Win64; x64) AppleWebKit/537.36 (KHTML, like Gecko) draw.io/21.1.2 Chrome/106.0.5249.199 Electron/21.4.3 Safari/537.36" etag="CbDeq2nsjVYxh4hix4iX" version="21.1.2" type="device">
  <diagram name="PÃ¡gina-1" id="l8IIKlGn8uND_vCN3gNa">
    <mxGraphModel dx="800" dy="374" grid="1" gridSize="10" guides="1" tooltips="1" connect="1" arrows="1" fold="1" page="1" pageScale="1" pageWidth="827" pageHeight="1169" math="0" shadow="0">
      <root>
        <mxCell id="0" />
        <mxCell id="1" parent="0" />
        <mxCell id="pa3t5LUXO6EmRr9iN6Ac-1" value="Produto" style="swimlane;fontStyle=1;align=center;verticalAlign=top;childLayout=stackLayout;horizontal=1;startSize=26;horizontalStack=0;resizeParent=1;resizeParentMax=0;resizeLast=0;collapsible=1;marginBottom=0;whiteSpace=wrap;html=1;" parent="1" vertex="1">
          <mxGeometry x="140" y="770" width="170" height="164" as="geometry" />
        </mxCell>
        <mxCell id="pa3t5LUXO6EmRr9iN6Ac-2" value="- SKU: String" style="text;strokeColor=none;fillColor=none;align=left;verticalAlign=top;spacingLeft=4;spacingRight=4;overflow=hidden;rotatable=0;points=[[0,0.5],[1,0.5]];portConstraint=eastwest;whiteSpace=wrap;html=1;" parent="pa3t5LUXO6EmRr9iN6Ac-1" vertex="1">
          <mxGeometry y="26" width="170" height="26" as="geometry" />
        </mxCell>
        <mxCell id="pa3t5LUXO6EmRr9iN6Ac-6" value="- codigoDeBarra: String" style="text;strokeColor=none;fillColor=none;align=left;verticalAlign=top;spacingLeft=4;spacingRight=4;overflow=hidden;rotatable=0;points=[[0,0.5],[1,0.5]];portConstraint=eastwest;whiteSpace=wrap;html=1;" parent="pa3t5LUXO6EmRr9iN6Ac-1" vertex="1">
          <mxGeometry y="52" width="170" height="26" as="geometry" />
        </mxCell>
        <mxCell id="pa3t5LUXO6EmRr9iN6Ac-8" value="- nome: String" style="text;strokeColor=none;fillColor=none;align=left;verticalAlign=top;spacingLeft=4;spacingRight=4;overflow=hidden;rotatable=0;points=[[0,0.5],[1,0.5]];portConstraint=eastwest;whiteSpace=wrap;html=1;" parent="pa3t5LUXO6EmRr9iN6Ac-1" vertex="1">
          <mxGeometry y="78" width="170" height="26" as="geometry" />
        </mxCell>
        <mxCell id="pa3t5LUXO6EmRr9iN6Ac-9" value="- preco: float" style="text;strokeColor=none;fillColor=none;align=left;verticalAlign=top;spacingLeft=4;spacingRight=4;overflow=hidden;rotatable=0;points=[[0,0.5],[1,0.5]];portConstraint=eastwest;whiteSpace=wrap;html=1;" parent="pa3t5LUXO6EmRr9iN6Ac-1" vertex="1">
          <mxGeometry y="104" width="170" height="26" as="geometry" />
        </mxCell>
        <mxCell id="pa3t5LUXO6EmRr9iN6Ac-10" value="- dataDeValidade: LocalDate" style="text;strokeColor=none;fillColor=none;align=left;verticalAlign=top;spacingLeft=4;spacingRight=4;overflow=hidden;rotatable=0;points=[[0,0.5],[1,0.5]];portConstraint=eastwest;whiteSpace=wrap;html=1;" parent="pa3t5LUXO6EmRr9iN6Ac-1" vertex="1">
          <mxGeometry y="130" width="170" height="26" as="geometry" />
        </mxCell>
        <mxCell id="pa3t5LUXO6EmRr9iN6Ac-3" value="" style="line;strokeWidth=1;fillColor=none;align=left;verticalAlign=middle;spacingTop=-1;spacingLeft=3;spacingRight=3;rotatable=0;labelPosition=right;points=[];portConstraint=eastwest;strokeColor=inherit;" parent="pa3t5LUXO6EmRr9iN6Ac-1" vertex="1">
          <mxGeometry y="156" width="170" height="8" as="geometry" />
        </mxCell>
        <mxCell id="pa3t5LUXO6EmRr9iN6Ac-11" value="Venda" style="swimlane;fontStyle=1;align=center;verticalAlign=top;childLayout=stackLayout;horizontal=1;startSize=26;horizontalStack=0;resizeParent=1;resizeParentMax=0;resizeLast=0;collapsible=1;marginBottom=0;whiteSpace=wrap;html=1;" parent="1" vertex="1">
          <mxGeometry x="400" y="410" width="270" height="268" as="geometry" />
        </mxCell>
        <mxCell id="pa3t5LUXO6EmRr9iN6Ac-12" value="- codigo: int" style="text;strokeColor=none;fillColor=none;align=left;verticalAlign=top;spacingLeft=4;spacingRight=4;overflow=hidden;rotatable=0;points=[[0,0.5],[1,0.5]];portConstraint=eastwest;whiteSpace=wrap;html=1;" parent="pa3t5LUXO6EmRr9iN6Ac-11" vertex="1">
          <mxGeometry y="26" width="270" height="26" as="geometry" />
        </mxCell>
        <mxCell id="pa3t5LUXO6EmRr9iN6Ac-15" value="- dataDaVenda: LocalDate" style="text;strokeColor=none;fillColor=none;align=left;verticalAlign=top;spacingLeft=4;spacingRight=4;overflow=hidden;rotatable=0;points=[[0,0.5],[1,0.5]];portConstraint=eastwest;whiteSpace=wrap;html=1;" parent="pa3t5LUXO6EmRr9iN6Ac-11" vertex="1">
          <mxGeometry y="52" width="270" height="26" as="geometry" />
        </mxCell>
        <mxCell id="pa3t5LUXO6EmRr9iN6Ac-16" value="- itens: List&amp;lt;Item&amp;gt;" style="text;strokeColor=none;fillColor=none;align=left;verticalAlign=top;spacingLeft=4;spacingRight=4;overflow=hidden;rotatable=0;points=[[0,0.5],[1,0.5]];portConstraint=eastwest;whiteSpace=wrap;html=1;" parent="pa3t5LUXO6EmRr9iN6Ac-11" vertex="1">
          <mxGeometry y="78" width="270" height="26" as="geometry" />
        </mxCell>
        <mxCell id="pa3t5LUXO6EmRr9iN6Ac-43" value="- vendedor: Vendedor" style="text;strokeColor=none;fillColor=none;align=left;verticalAlign=top;spacingLeft=4;spacingRight=4;overflow=hidden;rotatable=0;points=[[0,0.5],[1,0.5]];portConstraint=eastwest;whiteSpace=wrap;html=1;" parent="pa3t5LUXO6EmRr9iN6Ac-11" vertex="1">
          <mxGeometry y="104" width="270" height="26" as="geometry" />
        </mxCell>
        <mxCell id="pa3t5LUXO6EmRr9iN6Ac-44" value="- comprador: Pessoa" style="text;strokeColor=none;fillColor=none;align=left;verticalAlign=top;spacingLeft=4;spacingRight=4;overflow=hidden;rotatable=0;points=[[0,0.5],[1,0.5]];portConstraint=eastwest;whiteSpace=wrap;html=1;" parent="pa3t5LUXO6EmRr9iN6Ac-11" vertex="1">
          <mxGeometry y="130" width="270" height="26" as="geometry" />
        </mxCell>
        <mxCell id="pa3t5LUXO6EmRr9iN6Ac-13" value="" style="line;strokeWidth=1;fillColor=none;align=left;verticalAlign=middle;spacingTop=-1;spacingLeft=3;spacingRight=3;rotatable=0;labelPosition=right;points=[];portConstraint=eastwest;strokeColor=inherit;" parent="pa3t5LUXO6EmRr9iN6Ac-11" vertex="1">
          <mxGeometry y="156" width="270" height="8" as="geometry" />
        </mxCell>
        <mxCell id="pa3t5LUXO6EmRr9iN6Ac-14" value="+ adicionarItem(item:Item): boolean" style="text;strokeColor=none;fillColor=none;align=left;verticalAlign=top;spacingLeft=4;spacingRight=4;overflow=hidden;rotatable=0;points=[[0,0.5],[1,0.5]];portConstraint=eastwest;whiteSpace=wrap;html=1;" parent="pa3t5LUXO6EmRr9iN6Ac-11" vertex="1">
          <mxGeometry y="164" width="270" height="26" as="geometry" />
        </mxCell>
        <mxCell id="pa3t5LUXO6EmRr9iN6Ac-45" value="+ atualizarItem(posicao:int,item:Item): boolean" style="text;strokeColor=none;fillColor=none;align=left;verticalAlign=top;spacingLeft=4;spacingRight=4;overflow=hidden;rotatable=0;points=[[0,0.5],[1,0.5]];portConstraint=eastwest;whiteSpace=wrap;html=1;" parent="pa3t5LUXO6EmRr9iN6Ac-11" vertex="1">
          <mxGeometry y="190" width="270" height="26" as="geometry" />
        </mxCell>
        <mxCell id="pa3t5LUXO6EmRr9iN6Ac-46" value="+ removerItem(posicao:int): boolean" style="text;strokeColor=none;fillColor=none;align=left;verticalAlign=top;spacingLeft=4;spacingRight=4;overflow=hidden;rotatable=0;points=[[0,0.5],[1,0.5]];portConstraint=eastwest;whiteSpace=wrap;html=1;" parent="pa3t5LUXO6EmRr9iN6Ac-11" vertex="1">
          <mxGeometry y="216" width="270" height="26" as="geometry" />
        </mxCell>
        <mxCell id="pa3t5LUXO6EmRr9iN6Ac-47" value="+ listarItens(): List&amp;lt;Item&amp;gt;" style="text;strokeColor=none;fillColor=none;align=left;verticalAlign=top;spacingLeft=4;spacingRight=4;overflow=hidden;rotatable=0;points=[[0,0.5],[1,0.5]];portConstraint=eastwest;whiteSpace=wrap;html=1;" parent="pa3t5LUXO6EmRr9iN6Ac-11" vertex="1">
          <mxGeometry y="242" width="270" height="26" as="geometry" />
        </mxCell>
        <mxCell id="pa3t5LUXO6EmRr9iN6Ac-17" value="Item" style="swimlane;fontStyle=1;align=center;verticalAlign=top;childLayout=stackLayout;horizontal=1;startSize=26;horizontalStack=0;resizeParent=1;resizeParentMax=0;resizeLast=0;collapsible=1;marginBottom=0;whiteSpace=wrap;html=1;" parent="1" vertex="1">
          <mxGeometry x="440" y="809" width="160" height="86" as="geometry" />
        </mxCell>
        <mxCell id="pa3t5LUXO6EmRr9iN6Ac-18" value="- produto: Produto" style="text;strokeColor=none;fillColor=none;align=left;verticalAlign=top;spacingLeft=4;spacingRight=4;overflow=hidden;rotatable=0;points=[[0,0.5],[1,0.5]];portConstraint=eastwest;whiteSpace=wrap;html=1;" parent="pa3t5LUXO6EmRr9iN6Ac-17" vertex="1">
          <mxGeometry y="26" width="160" height="26" as="geometry" />
        </mxCell>
        <mxCell id="pa3t5LUXO6EmRr9iN6Ac-21" value="- quantidade: byte" style="text;strokeColor=none;fillColor=none;align=left;verticalAlign=top;spacingLeft=4;spacingRight=4;overflow=hidden;rotatable=0;points=[[0,0.5],[1,0.5]];portConstraint=eastwest;whiteSpace=wrap;html=1;" parent="pa3t5LUXO6EmRr9iN6Ac-17" vertex="1">
          <mxGeometry y="52" width="160" height="26" as="geometry" />
        </mxCell>
        <mxCell id="pa3t5LUXO6EmRr9iN6Ac-19" value="" style="line;strokeWidth=1;fillColor=none;align=left;verticalAlign=middle;spacingTop=-1;spacingLeft=3;spacingRight=3;rotatable=0;labelPosition=right;points=[];portConstraint=eastwest;strokeColor=inherit;" parent="pa3t5LUXO6EmRr9iN6Ac-17" vertex="1">
          <mxGeometry y="78" width="160" height="8" as="geometry" />
        </mxCell>
        <mxCell id="pa3t5LUXO6EmRr9iN6Ac-22" value="" style="endArrow=diamondThin;endFill=1;endSize=24;html=1;rounded=0;entryX=0;entryY=0.885;entryDx=0;entryDy=0;entryPerimeter=0;exitX=1.011;exitY=0.352;exitDx=0;exitDy=0;exitPerimeter=0;" parent="1" source="pa3t5LUXO6EmRr9iN6Ac-8" target="pa3t5LUXO6EmRr9iN6Ac-18" edge="1">
          <mxGeometry width="160" relative="1" as="geometry">
            <mxPoint x="290" y="717" as="sourcePoint" />
            <mxPoint x="450" y="717" as="targetPoint" />
          </mxGeometry>
        </mxCell>
        <mxCell id="pa3t5LUXO6EmRr9iN6Ac-23" value="" style="endArrow=diamondThin;endFill=0;endSize=24;html=1;rounded=0;entryX=0.449;entryY=1.027;entryDx=0;entryDy=0;exitX=0.5;exitY=0;exitDx=0;exitDy=0;entryPerimeter=0;" parent="1" source="pa3t5LUXO6EmRr9iN6Ac-17" target="pa3t5LUXO6EmRr9iN6Ac-47" edge="1">
          <mxGeometry width="160" relative="1" as="geometry">
            <mxPoint x="520" y="627" as="sourcePoint" />
            <mxPoint x="580" y="597" as="targetPoint" />
            <Array as="points" />
          </mxGeometry>
        </mxCell>
        <mxCell id="pa3t5LUXO6EmRr9iN6Ac-24" value="&amp;lt;&amp;lt; abstract &amp;gt;&amp;gt;&lt;br&gt;Pessoa" style="swimlane;fontStyle=1;align=center;verticalAlign=top;childLayout=stackLayout;horizontal=1;startSize=40;horizontalStack=0;resizeParent=1;resizeParentMax=0;resizeLast=0;collapsible=1;marginBottom=0;whiteSpace=wrap;html=1;" parent="1" vertex="1">
          <mxGeometry x="460" y="20" width="160" height="152" as="geometry" />
        </mxCell>
        <mxCell id="pa3t5LUXO6EmRr9iN6Ac-25" value="# codigo: short" style="text;strokeColor=none;fillColor=none;align=left;verticalAlign=top;spacingLeft=4;spacingRight=4;overflow=hidden;rotatable=0;points=[[0,0.5],[1,0.5]];portConstraint=eastwest;whiteSpace=wrap;html=1;" parent="pa3t5LUXO6EmRr9iN6Ac-24" vertex="1">
          <mxGeometry y="40" width="160" height="26" as="geometry" />
        </mxCell>
        <mxCell id="pa3t5LUXO6EmRr9iN6Ac-28" value="# nome: String" style="text;strokeColor=none;fillColor=none;align=left;verticalAlign=top;spacingLeft=4;spacingRight=4;overflow=hidden;rotatable=0;points=[[0,0.5],[1,0.5]];portConstraint=eastwest;whiteSpace=wrap;html=1;" parent="pa3t5LUXO6EmRr9iN6Ac-24" vertex="1">
          <mxGeometry y="66" width="160" height="26" as="geometry" />
        </mxCell>
        <mxCell id="pa3t5LUXO6EmRr9iN6Ac-29" value="# cpf: String" style="text;strokeColor=none;fillColor=none;align=left;verticalAlign=top;spacingLeft=4;spacingRight=4;overflow=hidden;rotatable=0;points=[[0,0.5],[1,0.5]];portConstraint=eastwest;whiteSpace=wrap;html=1;" parent="pa3t5LUXO6EmRr9iN6Ac-24" vertex="1">
          <mxGeometry y="92" width="160" height="26" as="geometry" />
        </mxCell>
        <mxCell id="pa3t5LUXO6EmRr9iN6Ac-30" value="# email: String" style="text;strokeColor=none;fillColor=none;align=left;verticalAlign=top;spacingLeft=4;spacingRight=4;overflow=hidden;rotatable=0;points=[[0,0.5],[1,0.5]];portConstraint=eastwest;whiteSpace=wrap;html=1;" parent="pa3t5LUXO6EmRr9iN6Ac-24" vertex="1">
          <mxGeometry y="118" width="160" height="26" as="geometry" />
        </mxCell>
        <mxCell id="pa3t5LUXO6EmRr9iN6Ac-26" value="" style="line;strokeWidth=1;fillColor=none;align=left;verticalAlign=middle;spacingTop=-1;spacingLeft=3;spacingRight=3;rotatable=0;labelPosition=right;points=[];portConstraint=eastwest;strokeColor=inherit;" parent="pa3t5LUXO6EmRr9iN6Ac-24" vertex="1">
          <mxGeometry y="144" width="160" height="8" as="geometry" />
        </mxCell>
        <mxCell id="pa3t5LUXO6EmRr9iN6Ac-31" value="Vendedor" style="swimlane;fontStyle=1;align=center;verticalAlign=top;childLayout=stackLayout;horizontal=1;startSize=26;horizontalStack=0;resizeParent=1;resizeParentMax=0;resizeLast=0;collapsible=1;marginBottom=0;whiteSpace=wrap;html=1;" parent="1" vertex="1">
          <mxGeometry x="350" y="240" width="160" height="60" as="geometry" />
        </mxCell>
        <mxCell id="pa3t5LUXO6EmRr9iN6Ac-32" value="- salario: float" style="text;strokeColor=none;fillColor=none;align=left;verticalAlign=top;spacingLeft=4;spacingRight=4;overflow=hidden;rotatable=0;points=[[0,0.5],[1,0.5]];portConstraint=eastwest;whiteSpace=wrap;html=1;" parent="pa3t5LUXO6EmRr9iN6Ac-31" vertex="1">
          <mxGeometry y="26" width="160" height="26" as="geometry" />
        </mxCell>
        <mxCell id="pa3t5LUXO6EmRr9iN6Ac-33" value="" style="line;strokeWidth=1;fillColor=none;align=left;verticalAlign=middle;spacingTop=-1;spacingLeft=3;spacingRight=3;rotatable=0;labelPosition=right;points=[];portConstraint=eastwest;strokeColor=inherit;" parent="pa3t5LUXO6EmRr9iN6Ac-31" vertex="1">
          <mxGeometry y="52" width="160" height="8" as="geometry" />
        </mxCell>
        <mxCell id="pa3t5LUXO6EmRr9iN6Ac-35" value="Cliente" style="swimlane;fontStyle=1;align=center;verticalAlign=top;childLayout=stackLayout;horizontal=1;startSize=26;horizontalStack=0;resizeParent=1;resizeParentMax=0;resizeLast=0;collapsible=1;marginBottom=0;whiteSpace=wrap;html=1;" parent="1" vertex="1">
          <mxGeometry x="560" y="240" width="160" height="60" as="geometry" />
        </mxCell>
        <mxCell id="pa3t5LUXO6EmRr9iN6Ac-36" value="- pontosDeFidelidade: short" style="text;strokeColor=none;fillColor=none;align=left;verticalAlign=top;spacingLeft=4;spacingRight=4;overflow=hidden;rotatable=0;points=[[0,0.5],[1,0.5]];portConstraint=eastwest;whiteSpace=wrap;html=1;" parent="pa3t5LUXO6EmRr9iN6Ac-35" vertex="1">
          <mxGeometry y="26" width="160" height="26" as="geometry" />
        </mxCell>
        <mxCell id="pa3t5LUXO6EmRr9iN6Ac-37" value="" style="line;strokeWidth=1;fillColor=none;align=left;verticalAlign=middle;spacingTop=-1;spacingLeft=3;spacingRight=3;rotatable=0;labelPosition=right;points=[];portConstraint=eastwest;strokeColor=inherit;" parent="pa3t5LUXO6EmRr9iN6Ac-35" vertex="1">
          <mxGeometry y="52" width="160" height="8" as="geometry" />
        </mxCell>
        <mxCell id="pa3t5LUXO6EmRr9iN6Ac-39" value="Extends" style="endArrow=block;endSize=16;endFill=0;html=1;rounded=0;entryX=0.5;entryY=0;entryDx=0;entryDy=0;exitX=0.5;exitY=1;exitDx=0;exitDy=0;" parent="1" source="pa3t5LUXO6EmRr9iN6Ac-24" target="pa3t5LUXO6EmRr9iN6Ac-31" edge="1">
          <mxGeometry width="160" relative="1" as="geometry">
            <mxPoint x="510" y="160" as="sourcePoint" />
            <mxPoint x="710" y="160" as="targetPoint" />
          </mxGeometry>
        </mxCell>
        <mxCell id="pa3t5LUXO6EmRr9iN6Ac-40" value="Extends" style="endArrow=block;endSize=16;endFill=0;html=1;rounded=0;exitX=0.5;exitY=1;exitDx=0;exitDy=0;entryX=0.5;entryY=0;entryDx=0;entryDy=0;" parent="1" source="pa3t5LUXO6EmRr9iN6Ac-24" target="pa3t5LUXO6EmRr9iN6Ac-35" edge="1">
          <mxGeometry width="160" relative="1" as="geometry">
            <mxPoint x="550" y="160" as="sourcePoint" />
            <mxPoint x="710" y="160" as="targetPoint" />
          </mxGeometry>
        </mxCell>
        <mxCell id="pa3t5LUXO6EmRr9iN6Ac-41" value="" style="endArrow=diamondThin;endFill=0;endSize=24;html=1;rounded=0;entryX=0.5;entryY=0;entryDx=0;entryDy=0;" parent="1" target="pa3t5LUXO6EmRr9iN6Ac-11" edge="1">
          <mxGeometry width="160" relative="1" as="geometry">
            <mxPoint x="420" y="300" as="sourcePoint" />
            <mxPoint x="650" y="430" as="targetPoint" />
          </mxGeometry>
        </mxCell>
        <mxCell id="pa3t5LUXO6EmRr9iN6Ac-42" value="" style="endArrow=diamondThin;endFill=0;endSize=24;html=1;rounded=0;entryX=0.5;entryY=0;entryDx=0;entryDy=0;" parent="1" source="pa3t5LUXO6EmRr9iN6Ac-37" target="pa3t5LUXO6EmRr9iN6Ac-11" edge="1">
          <mxGeometry width="160" relative="1" as="geometry">
            <mxPoint x="420" y="380" as="sourcePoint" />
            <mxPoint x="670" y="410" as="targetPoint" />
          </mxGeometry>
        </mxCell>
      </root>
    </mxGraphModel>
  </diagram>
</mxfile>
